<?xml version="1.0" standalone="no"?><!DOCTYPE svg PUBLIC "-//W3C//DTD SVG 1.1//EN" "http://www.w3.org/Graphics/SVG/1.1/DTD/svg11.dtd"><svg t="1747911797727" class="icon" viewBox="0 0 1024 1024" version="1.1" xmlns="http://www.w3.org/2000/svg" p-id="67115" xmlns:xlink="http://www.w3.org/1999/xlink" width="256" height="256"><path d="M68.27008 170.67008h887.45984A34.12992 34.12992 0 0 1 989.87008 204.8v682.67008A34.12992 34.12992 0 0 1 955.72992 921.6H68.27008a34.12992 34.12992 0 0 1-34.14016-34.12992V204.8a34.12992 34.12992 0 0 1 34.14016-34.12992z" fill="#D3E5FC" p-id="67116"></path><path d="M802.12992 409.6l187.72992 194.2016v283.66848l-0.04096 1.87392a34.14016 34.14016 0 0 1-32.21504 32.2048l-1.87392 0.0512H307.2l494.92992-512z" fill="#2C9D68" p-id="67117"></path><path d="M392.52992 546.12992L755.47648 921.6 68.27008 921.6l-1.87392-0.0512A34.06848 34.06848 0 0 1 41.7792 909.0048l350.75072-362.86464z" fill="#42C085" p-id="67118"></path><path d="M238.92992 375.47008m-68.27008 0a68.27008 68.27008 0 1 0 136.54016 0 68.27008 68.27008 0 1 0-136.54016 0Z" fill="#FFFFFF" p-id="67119"></path></svg>