<?xml version="1.0" standalone="no"?><!DOCTYPE svg PUBLIC "-//W3C//DTD SVG 1.1//EN" "http://www.w3.org/Graphics/SVG/1.1/DTD/svg11.dtd"><svg t="1747906525318" class="icon" viewBox="0 0 1024 1024" version="1.1" xmlns="http://www.w3.org/2000/svg" p-id="48429" xmlns:xlink="http://www.w3.org/1999/xlink" width="256" height="256"><path d="M204.8 51.2l409.6 0.2048L870.1952 307.2v614.4a51.2 51.2 0 0 1-45.2608 50.8416l-5.9392 0.3584H204.8a51.2 51.2 0 0 1-50.8416-45.2096L153.6 921.6V102.4l0.3072-5.9904a51.2 51.2 0 0 1 44.9024-44.8512L204.8 51.2z" fill="#EBECF0" p-id="48430"></path><path d="M543.8976 662.8352v-6.7072c0-11.52 2.4064-21.6064 7.168-31.232 4.352-8.6016 10.5472-16.7424 19.2-23.9616 23.04-20.1216 36.9152-33.0752 41.216-37.888 11.52-15.36 17.7664-34.9696 17.7664-58.9824 0-29.2352-9.5744-52.224-28.7744-69.0688-19.2-17.2544-44.5952-25.3952-75.776-25.3952-35.4816 0-63.2832 10.0864-83.968 30.208-21.0432 20.1728-31.1296 47.9744-31.1296 83.456h54.6816c0-20.1216 3.84-35.9936 11.9808-47.0016 9.1136-13.4144 23.9616-19.6608 45.056-19.6608 16.3328 0 29.2864 4.3008 38.4 13.4144 8.6016 9.1136 13.4144 21.6064 13.4144 37.376 0 12.032-4.3008 23.552-12.9536 34.0992l-5.7344 6.7072c-31.232 27.8016-49.8688 47.9744-56.1152 60.928-6.7072 12.9024-9.5744 28.7744-9.5744 47.0016v6.656h55.1424z m-27.8528 95.8976a36.9664 36.9664 0 0 0 26.4192-10.0864 35.072 35.072 0 0 0 11.008-26.368 35.4304 35.4304 0 0 0-10.5472-25.9072 38.144 38.144 0 0 0-26.88-10.0352 36.9664 36.9664 0 0 0-26.368 10.0352 33.6384 33.6384 0 0 0-10.5472 25.9072c0 10.5472 3.3792 19.2 10.5472 25.9072a37.376 37.376 0 0 0 26.368 10.5472zM614.4 51.2l256 256h-204.8a51.2 51.2 0 0 1-51.2-51.2V51.2z" fill="#C1C7D0" p-id="48431"></path></svg>